<?xml version="1.0" encoding="utf-8" standalone="no"?>
<!DOCTYPE svg PUBLIC "-//W3C//DTD SVG 1.1//EN"
  "http://www.w3.org/Graphics/SVG/1.1/DTD/svg11.dtd">
<svg xmlns:xlink="http://www.w3.org/1999/xlink" width="855.787812pt" height="380.148607pt" viewBox="0 0 855.787812 380.148607" xmlns="http://www.w3.org/2000/svg" version="1.1">
 <metadata>
  <rdf:RDF xmlns:dc="http://purl.org/dc/elements/1.1/" xmlns:cc="http://creativecommons.org/ns#" xmlns:rdf="http://www.w3.org/1999/02/22-rdf-syntax-ns#">
   <cc:Work>
    <dc:type rdf:resource="http://purl.org/dc/dcmitype/StillImage"/>
    <dc:date>2026-07-21T20:56:47.529223</dc:date>
    <dc:format>image/svg+xml</dc:format>
    <dc:creator>
     <cc:Agent>
      <dc:title>Matplotlib v3.10.0, https://matplotlib.org/</dc:title>
     </cc:Agent>
    </dc:creator>
   </cc:Work>
  </rdf:RDF>
 </metadata>
 <defs>
  <style type="text/css">*{stroke-linejoin: round; stroke-linecap: butt}</style>
 </defs>
 <g id="figure_1">
  <g id="patch_1">
   <path d="M 0 380.148607
L 855.787812 380.148607
L 855.787812 0
L 0 0
z
" style="fill: #ffffff"/>
  </g>
  <g id="axes_1">
   <g id="patch_2">
    <path d="M 40.407813 342.420116
L 848.587813 342.420116
L 848.587813 22.7925
L 40.407813 22.7925
z
" style="fill: #f8fafc"/>
   </g>
   <g id="patch_3">
    <path d="M 77.143267 342.420116
L 98.134955 342.420116
L 98.134955 273.15092
L 77.143267 273.15092
z
" clip-path="url(#p31147e15f2)" style="fill: #e58b52"/>
   </g>
   <g id="patch_4">
    <path d="M 161.11002 342.420116
L 182.101709 342.420116
L 182.101709 339.427195
L 161.11002 339.427195
z
" clip-path="url(#p31147e15f2)" style="fill: #e58b52"/>
   </g>
   <g id="patch_5">
    <path d="M 245.076774 342.420116
L 266.068462 342.420116
L 266.068462 330.215103
L 245.076774 330.215103
z
" clip-path="url(#p31147e15f2)" style="fill: #e58b52"/>
   </g>
   <g id="patch_6">
    <path d="M 329.043527 342.420116
L 350.035215 342.420116
L 350.035215 342.420116
L 329.043527 342.420116
z
" clip-path="url(#p31147e15f2)" style="fill: #e58b52"/>
   </g>
   <g id="patch_7">
    <path d="M 413.01028 342.420116
L 434.001968 342.420116
L 434.001968 38.012863
L 413.01028 38.012863
z
" clip-path="url(#p31147e15f2)" style="fill: #e58b52"/>
   </g>
   <g id="patch_8">
    <path d="M 496.977033 342.420116
L 517.968722 342.420116
L 517.968722 335.264957
L 496.977033 335.264957
z
" clip-path="url(#p31147e15f2)" style="fill: #e58b52"/>
   </g>
   <g id="patch_9">
    <path d="M 580.943787 342.420116
L 601.935475 342.420116
L 601.935475 339.357521
L 580.943787 339.357521
z
" clip-path="url(#p31147e15f2)" style="fill: #e58b52"/>
   </g>
   <g id="patch_10">
    <path d="M 664.91054 342.420116
L 685.902228 342.420116
L 685.902228 334.531361
L 664.91054 334.531361
z
" clip-path="url(#p31147e15f2)" style="fill: #e58b52"/>
   </g>
   <g id="patch_11">
    <path d="M 748.877293 342.420116
L 769.868981 342.420116
L 769.868981 322.434547
L 748.877293 322.434547
z
" clip-path="url(#p31147e15f2)" style="fill: #e58b52"/>
   </g>
   <g id="patch_12">
    <path d="M 98.134955 342.420116
L 119.126644 342.420116
L 119.126644 337.409646
L 98.134955 337.409646
z
" clip-path="url(#p31147e15f2)" style="fill: #2386a8"/>
   </g>
   <g id="patch_13">
    <path d="M 182.101709 342.420116
L 203.093397 342.420116
L 203.093397 340.90665
L 182.101709 340.90665
z
" clip-path="url(#p31147e15f2)" style="fill: #2386a8"/>
   </g>
   <g id="patch_14">
    <path d="M 266.068462 342.420116
L 287.06015 342.420116
L 287.06015 339.665334
L 266.068462 339.665334
z
" clip-path="url(#p31147e15f2)" style="fill: #2386a8"/>
   </g>
   <g id="patch_15">
    <path d="M 350.035215 342.420116
L 371.026903 342.420116
L 371.026903 342.420116
L 350.035215 342.420116
z
" clip-path="url(#p31147e15f2)" style="fill: #2386a8"/>
   </g>
   <g id="patch_16">
    <path d="M 434.001968 342.420116
L 454.993657 342.420116
L 454.993657 335.385062
L 434.001968 335.385062
z
" clip-path="url(#p31147e15f2)" style="fill: #2386a8"/>
   </g>
   <g id="patch_17">
    <path d="M 517.968722 342.420116
L 538.96041 342.420116
L 538.96041 338.992902
L 517.968722 338.992902
z
" clip-path="url(#p31147e15f2)" style="fill: #2386a8"/>
   </g>
   <g id="patch_18">
    <path d="M 601.935475 342.420116
L 622.927163 342.420116
L 622.927163 342.205
L 601.935475 342.205
z
" clip-path="url(#p31147e15f2)" style="fill: #2386a8"/>
   </g>
   <g id="patch_19">
    <path d="M 685.902228 342.420116
L 706.893916 342.420116
L 706.893916 341.559651
L 685.902228 341.559651
z
" clip-path="url(#p31147e15f2)" style="fill: #2386a8"/>
   </g>
   <g id="patch_20">
    <path d="M 769.868981 342.420116
L 790.86067 342.420116
L 790.86067 330.938008
L 769.868981 330.938008
z
" clip-path="url(#p31147e15f2)" style="fill: #2386a8"/>
   </g>
   <g id="patch_21">
    <path d="M 119.126644 342.420116
L 140.118332 342.420116
L 140.118332 322.231261
L 119.126644 322.231261
z
" clip-path="url(#p31147e15f2)" style="fill: #86b9c8"/>
   </g>
   <g id="patch_22">
    <path d="M 203.093397 342.420116
L 224.085085 342.420116
L 224.085085 339.979157
L 203.093397 339.979157
z
" clip-path="url(#p31147e15f2)" style="fill: #86b9c8"/>
   </g>
   <g id="patch_23">
    <path d="M 287.06015 342.420116
L 308.051838 342.420116
L 308.051838 337.154909
L 287.06015 337.154909
z
" clip-path="url(#p31147e15f2)" style="fill: #86b9c8"/>
   </g>
   <g id="patch_24">
    <path d="M 371.026903 342.420116
L 392.018592 342.420116
L 392.018592 341.903837
L 371.026903 341.903837
z
" clip-path="url(#p31147e15f2)" style="fill: #86b9c8"/>
   </g>
   <g id="patch_25">
    <path d="M 454.993657 342.420116
L 475.985345 342.420116
L 475.985345 260.304508
L 454.993657 260.304508
z
" clip-path="url(#p31147e15f2)" style="fill: #86b9c8"/>
   </g>
   <g id="patch_26">
    <path d="M 538.96041 342.420116
L 559.952098 342.420116
L 559.952098 337.968407
L 538.96041 337.968407
z
" clip-path="url(#p31147e15f2)" style="fill: #86b9c8"/>
   </g>
   <g id="patch_27">
    <path d="M 622.927163 342.420116
L 643.918851 342.420116
L 643.918851 341.546909
L 622.927163 341.546909
z
" clip-path="url(#p31147e15f2)" style="fill: #86b9c8"/>
   </g>
   <g id="patch_28">
    <path d="M 706.893916 342.420116
L 727.885605 342.420116
L 727.885605 339.910137
L 706.893916 339.910137
z
" clip-path="url(#p31147e15f2)" style="fill: #86b9c8"/>
   </g>
   <g id="patch_29">
    <path d="M 790.86067 342.420116
L 811.852358 342.420116
L 811.852358 326.969976
L 790.86067 326.969976
z
" clip-path="url(#p31147e15f2)" style="fill: #86b9c8"/>
   </g>
   <g id="matplotlib.axis_1">
    <g id="xtick_1">
     <g id="line2d_1">
      <defs>
       <path id="m323a33deab" d="M 0 0
L 0 3.5
" style="stroke: #000000; stroke-width: 0.8"/>
      </defs>
      <g>
       <use xlink:href="#m323a33deab" x="108.6308" y="342.420116" style="stroke: #000000; stroke-width: 0.8"/>
      </g>
     </g>
     <g id="text_1">
      <text style="font-size: 10px; font-family: 'Microsoft YaHei', 'Malgun Gothic', 'Segoe UI', 'DejaVu Sans', sans-serif" transform="translate(90.778839 370.61259) rotate(-20)">简体中文</text>
     </g>
    </g>
    <g id="xtick_2">
     <g id="line2d_2">
      <g>
       <use xlink:href="#m323a33deab" x="192.597553" y="342.420116" style="stroke: #000000; stroke-width: 0.8"/>
      </g>
     </g>
     <g id="text_2">
      <text style="font-size: 10px; font-family: 'Microsoft YaHei', 'Malgun Gothic', 'Segoe UI', 'DejaVu Sans', sans-serif" transform="translate(174.745592 370.61259) rotate(-20)">繁體中文</text>
     </g>
    </g>
    <g id="xtick_3">
     <g id="line2d_3">
      <g>
       <use xlink:href="#m323a33deab" x="276.564306" y="342.420116" style="stroke: #000000; stroke-width: 0.8"/>
      </g>
     </g>
     <g id="text_3">
      <text style="font-size: 10px; font-family: 'Microsoft YaHei', 'Malgun Gothic', 'Segoe UI', 'DejaVu Sans', sans-serif" transform="translate(261.442984 368.61765) rotate(-20)">English</text>
     </g>
    </g>
    <g id="xtick_4">
     <g id="line2d_4">
      <g>
       <use xlink:href="#m323a33deab" x="360.531059" y="342.420116" style="stroke: #000000; stroke-width: 0.8"/>
      </g>
     </g>
     <g id="text_4">
      <text style="font-size: 10px; font-family: 'Microsoft YaHei', 'Malgun Gothic', 'Segoe UI', 'DejaVu Sans', sans-serif" transform="translate(347.377561 367.192388) rotate(-20)">日本語</text>
     </g>
    </g>
    <g id="xtick_5">
     <g id="line2d_5">
      <g>
       <use xlink:href="#m323a33deab" x="444.497813" y="342.420116" style="stroke: #000000; stroke-width: 0.8"/>
      </g>
     </g>
     <g id="text_5">
      <text style="font-size: 10px; font-family: 'Microsoft YaHei', 'Malgun Gothic', 'Segoe UI', 'DejaVu Sans', sans-serif" transform="translate(436.042778 363.772187) rotate(-20)">韩语</text>
     </g>
    </g>
    <g id="xtick_6">
     <g id="line2d_6">
      <g>
       <use xlink:href="#m323a33deab" x="528.464566" y="342.420116" style="stroke: #000000; stroke-width: 0.8"/>
      </g>
     </g>
     <g id="text_6">
      <text style="font-size: 10px; font-family: 'Microsoft YaHei', 'Malgun Gothic', 'Segoe UI', 'DejaVu Sans', sans-serif" transform="translate(511.244695 370.152466) rotate(-20)">Français</text>
     </g>
    </g>
    <g id="xtick_7">
     <g id="line2d_7">
      <g>
       <use xlink:href="#m323a33deab" x="612.431319" y="342.420116" style="stroke: #000000; stroke-width: 0.8"/>
      </g>
     </g>
     <g id="text_7">
      <text style="font-size: 10px; font-family: 'Microsoft YaHei', 'Malgun Gothic', 'Segoe UI', 'DejaVu Sans', sans-serif" transform="translate(595.058748 370.263622) rotate(-20)">Deutsch</text>
     </g>
    </g>
    <g id="xtick_8">
     <g id="line2d_8">
      <g>
       <use xlink:href="#m323a33deab" x="696.398072" y="342.420116" style="stroke: #000000; stroke-width: 0.8"/>
      </g>
     </g>
     <g id="text_8">
      <text style="font-size: 10px; font-family: 'Microsoft YaHei', 'Malgun Gothic', 'Segoe UI', 'DejaVu Sans', sans-serif" transform="translate(679.914539 369.616456) rotate(-20)">Español</text>
     </g>
    </g>
    <g id="xtick_9">
     <g id="line2d_9">
      <g>
       <use xlink:href="#m323a33deab" x="780.364825" y="342.420116" style="stroke: #000000; stroke-width: 0.8"/>
      </g>
     </g>
     <g id="text_9">
      <text style="font-size: 10px; font-family: 'Microsoft YaHei', 'Malgun Gothic', 'Segoe UI', 'DejaVu Sans', sans-serif" transform="translate(762.704522 370.404355) rotate(-20)">Русский</text>
     </g>
    </g>
   </g>
   <g id="matplotlib.axis_2">
    <g id="ytick_1">
     <g id="line2d_10">
      <path d="M 40.407813 342.420116
L 848.587813 342.420116
" clip-path="url(#p31147e15f2)" style="fill: none; stroke: #dbe4ee; stroke-opacity: 0.7; stroke-width: 0.8; stroke-linecap: square"/>
     </g>
     <g id="line2d_11">
      <defs>
       <path id="m9c58cbf0b2" d="M 0 0
L -3.5 0
" style="stroke: #000000; stroke-width: 0.8"/>
      </defs>
      <g>
       <use xlink:href="#m9c58cbf0b2" x="40.407813" y="342.420116" style="stroke: #000000; stroke-width: 0.8"/>
      </g>
     </g>
     <g id="text_10">
      <text style="font-size: 10px; font-family: 'Microsoft YaHei', 'Malgun Gothic', 'Segoe UI', 'DejaVu Sans', sans-serif; text-anchor: end" x="33.407813" y="346.416991" transform="rotate(-0 33.407813 346.416991)">0</text>
     </g>
    </g>
    <g id="ytick_2">
     <g id="line2d_12">
      <path d="M 40.407813 273.582934
L 848.587813 273.582934
" clip-path="url(#p31147e15f2)" style="fill: none; stroke: #dbe4ee; stroke-opacity: 0.7; stroke-width: 0.8; stroke-linecap: square"/>
     </g>
     <g id="line2d_13">
      <g>
       <use xlink:href="#m9c58cbf0b2" x="40.407813" y="273.582934" style="stroke: #000000; stroke-width: 0.8"/>
      </g>
     </g>
     <g id="text_11">
      <text style="font-size: 10px; font-family: 'Microsoft YaHei', 'Malgun Gothic', 'Segoe UI', 'DejaVu Sans', sans-serif; text-anchor: end" x="33.407813" y="277.579809" transform="rotate(-0 33.407813 277.579809)">20</text>
     </g>
    </g>
    <g id="ytick_3">
     <g id="line2d_14">
      <path d="M 40.407813 204.745752
L 848.587813 204.745752
" clip-path="url(#p31147e15f2)" style="fill: none; stroke: #dbe4ee; stroke-opacity: 0.7; stroke-width: 0.8; stroke-linecap: square"/>
     </g>
     <g id="line2d_15">
      <g>
       <use xlink:href="#m9c58cbf0b2" x="40.407813" y="204.745752" style="stroke: #000000; stroke-width: 0.8"/>
      </g>
     </g>
     <g id="text_12">
      <text style="font-size: 10px; font-family: 'Microsoft YaHei', 'Malgun Gothic', 'Segoe UI', 'DejaVu Sans', sans-serif; text-anchor: end" x="33.407813" y="208.742627" transform="rotate(-0 33.407813 208.742627)">40</text>
     </g>
    </g>
    <g id="ytick_4">
     <g id="line2d_16">
      <path d="M 40.407813 135.90857
L 848.587813 135.90857
" clip-path="url(#p31147e15f2)" style="fill: none; stroke: #dbe4ee; stroke-opacity: 0.7; stroke-width: 0.8; stroke-linecap: square"/>
     </g>
     <g id="line2d_17">
      <g>
       <use xlink:href="#m9c58cbf0b2" x="40.407813" y="135.90857" style="stroke: #000000; stroke-width: 0.8"/>
      </g>
     </g>
     <g id="text_13">
      <text style="font-size: 10px; font-family: 'Microsoft YaHei', 'Malgun Gothic', 'Segoe UI', 'DejaVu Sans', sans-serif; text-anchor: end" x="33.407813" y="139.905445" transform="rotate(-0 33.407813 139.905445)">60</text>
     </g>
    </g>
    <g id="ytick_5">
     <g id="line2d_18">
      <path d="M 40.407813 67.071388
L 848.587813 67.071388
" clip-path="url(#p31147e15f2)" style="fill: none; stroke: #dbe4ee; stroke-opacity: 0.7; stroke-width: 0.8; stroke-linecap: square"/>
     </g>
     <g id="line2d_19">
      <g>
       <use xlink:href="#m9c58cbf0b2" x="40.407813" y="67.071388" style="stroke: #000000; stroke-width: 0.8"/>
      </g>
     </g>
     <g id="text_14">
      <text style="font-size: 10px; font-family: 'Microsoft YaHei', 'Malgun Gothic', 'Segoe UI', 'DejaVu Sans', sans-serif; text-anchor: end" x="33.407813" y="71.068263" transform="rotate(-0 33.407813 71.068263)">80</text>
     </g>
    </g>
    <g id="text_15">
     <text style="font-size: 10px; font-family: 'Microsoft YaHei', 'Malgun Gothic', 'Segoe UI', 'DejaVu Sans', sans-serif; text-anchor: middle" x="15.19375" y="182.606308" transform="rotate(-90 15.19375 182.606308)">字符错误率 CER（%）</text>
    </g>
   </g>
   <g id="patch_30">
    <path d="M 40.407813 342.420116
L 40.407813 22.7925
" style="fill: none; stroke: #cbd5e1; stroke-width: 0.8; stroke-linejoin: miter; stroke-linecap: square"/>
   </g>
   <g id="patch_31">
    <path d="M 848.587813 342.420116
L 848.587813 22.7925
" style="fill: none; stroke: #cbd5e1; stroke-width: 0.8; stroke-linejoin: miter; stroke-linecap: square"/>
   </g>
   <g id="patch_32">
    <path d="M 40.407813 342.420116
L 848.587813 342.420116
" style="fill: none; stroke: #cbd5e1; stroke-width: 0.8; stroke-linejoin: miter; stroke-linecap: square"/>
   </g>
   <g id="patch_33">
    <path d="M 40.407813 22.7925
L 848.587813 22.7925
" style="fill: none; stroke: #cbd5e1; stroke-width: 0.8; stroke-linejoin: miter; stroke-linecap: square"/>
   </g>
   <g id="text_16">
    <text style="font-size: 12px; font-family: 'Microsoft YaHei', 'Malgun Gothic', 'Segoe UI', 'DejaVu Sans', sans-serif; text-anchor: middle" x="444.497813" y="16.7925" transform="rotate(-0 444.497813 16.7925)">OCR质量：小字号是中文与韩文的主要风险</text>
   </g>
   <g id="legend_1">
    <g id="patch_34">
     <path d="M 769.587813 77.231562
L 841.587813 77.231562
Q 843.587813 77.231562 843.587813 75.231562
L 843.587813 29.7925
Q 843.587813 27.7925 841.587813 27.7925
L 769.587813 27.7925
Q 767.587813 27.7925 767.587813 29.7925
L 767.587813 75.231562
Q 767.587813 77.231562 769.587813 77.231562
z
" style="fill: #f8fafc; opacity: 0.8; stroke: #cccccc; stroke-linejoin: miter"/>
    </g>
    <g id="patch_35">
     <path d="M 771.587813 39.78625
L 791.587813 39.78625
L 791.587813 32.78625
L 771.587813 32.78625
z
" style="fill: #e58b52"/>
    </g>
    <g id="text_17">
     <text style="font-size: 10px; font-family: 'Microsoft YaHei', 'Malgun Gothic', 'Segoe UI', 'DejaVu Sans', sans-serif; text-anchor: start" x="799.587813" y="39.78625" transform="rotate(-0 799.587813 39.78625)">16px</text>
    </g>
    <g id="patch_36">
     <path d="M 771.587813 55.265938
L 791.587813 55.265938
L 791.587813 48.265938
L 771.587813 48.265938
z
" style="fill: #2386a8"/>
    </g>
    <g id="text_18">
     <text style="font-size: 10px; font-family: 'Microsoft YaHei', 'Malgun Gothic', 'Segoe UI', 'DejaVu Sans', sans-serif; text-anchor: start" x="799.587813" y="55.265938" transform="rotate(-0 799.587813 55.265938)">24/32px</text>
    </g>
    <g id="patch_37">
     <path d="M 771.587813 70.745625
L 791.587813 70.745625
L 791.587813 63.745625
L 771.587813 63.745625
z
" style="fill: #86b9c8"/>
    </g>
    <g id="text_19">
     <text style="font-size: 10px; font-family: 'Microsoft YaHei', 'Malgun Gothic', 'Segoe UI', 'DejaVu Sans', sans-serif; text-anchor: start" x="799.587813" y="70.745625" transform="rotate(-0 799.587813 70.745625)">全部条件</text>
    </g>
   </g>
  </g>
 </g>
 <defs>
  <clipPath id="p31147e15f2">
   <rect x="40.407813" y="22.7925" width="808.18" height="319.627616"/>
  </clipPath>
 </defs>
</svg>
